<svg width="186" height="154" viewBox="0 0 186 154" fill="none" xmlns="http://www.w3.org/2000/svg">
<path d="M86.5923 57.7224L87.1328 56.8811L87.1328 56.8811L86.5923 57.7224ZM87.8096 134.082L87.198 134.873C87.1857 134.864 87.1737 134.854 87.1619 134.844L87.8096 134.082ZM106.981 49.7447L106.174 49.1545L106.174 49.1545L106.981 49.7447ZM183.5 7.27628e-06L185.426 11.3852L174.603 7.36095L183.5 7.27628e-06ZM1.36637 150.144C1.27298 149.599 1.63853 149.082 2.18286 148.989C2.72719 148.896 3.24417 149.261 3.33757 149.806L1.36637 150.144ZM2.73638 142.762C2.74069 143.315 2.29649 143.766 1.74422 143.77C1.19195 143.775 0.740753 143.33 0.736439 142.778L2.73638 142.762ZM1.04508 136.453C1.10104 135.904 1.59182 135.504 2.14126 135.56C2.6907 135.616 3.09075 136.107 3.03478 136.656L1.04508 136.453ZM4.13187 129.615C4.02003 130.156 3.49093 130.503 2.95009 130.392C2.40924 130.28 2.06147 129.751 2.17331 129.21L4.13187 129.615ZM3.67746 123.103C3.82862 122.572 4.38177 122.264 4.91297 122.415C5.44417 122.566 5.75226 123.119 5.6011 123.65L3.67746 123.103ZM7.82231 116.833C7.63245 117.351 7.05811 117.618 6.53949 117.428C6.02086 117.238 5.75435 116.664 5.94421 116.145L7.82231 116.833ZM8.26494 110.326C8.48366 109.819 9.07208 109.585 9.57921 109.804C10.0863 110.022 10.3201 110.611 10.1014 111.118L8.26494 110.326ZM13.1492 104.607C12.9002 105.1 12.2988 105.297 11.8058 105.048C11.3128 104.799 11.1149 104.198 11.3639 103.705L13.1492 104.607ZM14.3231 98.1872C14.5959 97.707 15.2064 97.5389 15.6866 97.8117C16.1668 98.0845 16.3349 98.695 16.0621 99.1752L14.3231 98.1872ZM19.7863 93.0263C19.4872 93.4906 18.8683 93.6244 18.4041 93.3252C17.9398 93.0261 17.806 92.4072 18.1052 91.943L19.7863 93.0263ZM21.6209 86.7637C21.942 86.3143 22.5666 86.2104 23.016 86.5315C23.4653 86.8525 23.5693 87.4771 23.2482 87.9265L21.6209 86.7637ZM27.5906 82.2034C27.2441 82.6335 26.6146 82.7012 26.1845 82.3547C25.7545 82.0082 25.6867 81.3786 26.0332 80.9486L27.5906 82.2034ZM30.0895 76.1743C30.4581 75.7631 31.0904 75.7286 31.5016 76.0973C31.9128 76.466 31.9473 77.0982 31.5786 77.5094L30.0895 76.1743ZM36.5488 72.3215C36.1532 72.707 35.5201 72.6988 35.1347 72.3032C34.7492 71.9077 34.7574 71.2746 35.153 70.8891L36.5488 72.3215ZM39.7813 66.6582C40.2011 66.2994 40.8324 66.3488 41.1912 66.7686C41.5501 67.1884 41.5007 67.8196 41.0809 68.1785L39.7813 66.6582ZM46.7185 63.7653C46.2685 64.0854 45.6441 63.9801 45.324 63.5301C45.0039 63.08 45.1092 62.4557 45.5593 62.1356L46.7185 63.7653ZM50.8519 58.7158C51.3295 58.4384 51.9415 58.6007 52.2189 59.0783C52.4962 59.5558 52.334 60.1678 51.8564 60.4452L50.8519 58.7158ZM58.2178 57.2774C57.7074 57.4885 57.1226 57.2458 56.9116 56.7355C56.7005 56.2251 56.9432 55.6403 57.4535 55.4292L58.2178 57.2774ZM63.4718 53.4233C64.0075 53.2888 64.5507 53.614 64.6852 54.1497C64.8196 54.6854 64.4944 55.2286 63.9587 55.3631L63.4718 53.4233ZM70.9049 54.3693C70.3529 54.3856 69.8922 53.9512 69.8759 53.3992C69.8596 52.8472 70.2939 52.3864 70.846 52.3702L70.9049 54.3693ZM77.2369 52.8764C77.7791 52.9816 78.1333 53.5064 78.0281 54.0486C77.9229 54.5907 77.3981 54.945 76.856 54.8398L77.2369 52.8764ZM83.4337 57.0748C82.9393 56.8287 82.738 56.2284 82.9841 55.734C83.2302 55.2395 83.8305 55.0382 84.3249 55.2843L83.4337 57.0748ZM89.6908 58.6073C90.1413 58.9267 90.2477 59.5509 89.9284 60.0014C89.609 60.452 88.9848 60.5584 88.5342 60.239L89.6908 58.6073ZM93.9312 64.5308C93.5192 64.163 93.4832 63.5309 93.851 63.1188C94.2187 62.7068 94.8508 62.6708 95.2629 63.0386L93.9312 64.5308ZM99.6306 67.3576C100.003 67.7659 99.9731 68.3984 99.5648 68.7703C99.1566 69.1422 98.5241 69.1128 98.1521 68.7046L99.6306 67.3576ZM102.465 74.0764C102.147 73.6248 102.255 73.001 102.707 72.6831C103.159 72.3653 103.783 72.4738 104.1 72.9254L102.465 74.0764ZM107.354 78.1393C107.62 78.6234 107.443 79.2314 106.959 79.4973C106.475 79.7632 105.867 79.5863 105.601 79.1023L107.354 78.1393ZM108.521 85.3451C108.32 84.8308 108.574 84.2508 109.088 84.0497C109.602 83.8486 110.182 84.1025 110.384 84.6169L108.521 85.3451ZM112.299 90.4499C112.443 90.9834 112.126 91.5318 111.593 91.675C111.059 91.8181 110.511 91.5017 110.368 90.9683L112.299 90.4499ZM111.728 97.7352C111.654 97.1879 112.037 96.6841 112.585 96.6099C113.132 96.5357 113.636 96.9192 113.71 97.4665L111.728 97.7352ZM114.202 103.578C114.216 104.13 113.78 104.589 113.228 104.603C112.676 104.618 112.217 104.182 112.203 103.63L114.202 103.578ZM111.935 110.524C111.992 109.974 112.484 109.576 113.033 109.634C113.583 109.691 113.981 110.183 113.924 110.732L111.935 110.524ZM112.925 116.788C112.802 117.327 112.266 117.664 111.727 117.541C111.189 117.418 110.852 116.882 110.975 116.344L112.925 116.788ZM108.926 122.908C109.134 122.396 109.718 122.15 110.229 122.359C110.741 122.567 110.987 123.15 110.779 123.662L108.926 122.908ZM107.958 129.187C107.662 129.653 107.044 129.791 106.577 129.495C106.111 129.198 105.974 128.58 106.27 128.114L107.958 129.187ZM101.905 133.173C102.333 132.825 102.963 132.89 103.312 133.319C103.66 133.747 103.595 134.377 103.166 134.725L101.905 133.173ZM97.4099 137.599C96.8696 137.713 96.3388 137.368 96.2244 136.828C96.11 136.288 96.4552 135.757 96.9955 135.642L97.4099 137.599ZM90.8136 134.796C91.31 135.038 91.5161 135.636 91.2739 136.133C91.0318 136.629 90.4331 136.835 89.9367 136.593L90.8136 134.796ZM84.7892 132.663C84.3983 132.273 84.3977 131.64 84.7878 131.249C85.178 130.858 85.8111 130.857 86.202 131.247L84.7892 132.663ZM81.8114 125.711C82.0961 126.185 81.9431 126.799 81.4698 127.084C80.9965 127.368 80.3821 127.215 80.0975 126.742L81.8114 125.711ZM77.4542 120.792C77.2944 120.263 77.5934 119.705 78.122 119.545C78.6507 119.386 79.2088 119.685 79.3687 120.213L77.4542 120.792ZM78.2604 113.247C78.2784 113.799 77.8455 114.261 77.2935 114.279C76.7415 114.297 76.2794 113.864 76.2614 113.312L78.2604 113.247ZM76.6185 106.89C76.693 106.343 77.197 105.959 77.7443 106.034C78.2915 106.108 78.6747 106.612 78.6003 107.159L76.6185 106.89ZM80.0903 100.137C79.9408 100.669 79.3886 100.979 78.857 100.829C78.3253 100.68 78.0155 100.128 78.1649 99.5959L80.0903 100.137ZM80.158 93.5523C80.352 93.0352 80.9285 92.7732 81.4456 92.9672C81.9627 93.1612 82.2246 93.7376 82.0306 94.2547L80.158 93.5523ZM84.8386 87.5629C84.6074 88.0644 84.0134 88.2836 83.5118 88.0524C83.0103 87.8213 82.7911 87.2272 83.0222 86.7257L84.8386 87.5629ZM85.8113 81.0479C86.066 80.5579 86.6698 80.3672 87.1598 80.622C87.6498 80.8767 87.8405 81.4805 87.5858 81.9705L85.8113 81.0479ZM91.0997 75.5717C90.8238 76.0501 90.2123 76.2142 89.7339 75.9383C89.2555 75.6624 89.0913 75.0509 89.3672 74.5725L91.0997 75.5717ZM92.595 69.1708C92.8852 68.7008 93.5013 68.5551 93.9713 68.8452C94.4412 69.1354 94.5869 69.7516 94.2968 70.2215L92.595 69.1708ZM98.2398 64.0445C97.9361 64.5059 97.316 64.6337 96.8547 64.33C96.3934 64.0263 96.2656 63.4062 96.5693 62.9449L98.2398 64.0445ZM100.083 57.7288C100.396 57.2738 101.019 57.1589 101.474 57.4721C101.928 57.7852 102.043 58.4079 101.73 58.8628L100.083 57.7288ZM105.928 52.9001C105.606 53.3485 104.981 53.4506 104.533 53.1281C104.084 52.8057 103.982 52.1808 104.305 51.7324L105.928 52.9001ZM108.053 46.655C108.391 46.2183 109.019 46.1383 109.456 46.4763C109.893 46.8143 109.973 47.4424 109.635 47.8792L108.053 46.655ZM114.008 42.6641C113.634 43.0704 113.001 43.0964 112.595 42.7223C112.189 42.3482 112.163 41.7155 112.537 41.3093L114.008 42.6641ZM116.841 37.1362C117.263 36.7796 117.893 36.8325 118.25 37.2543C118.607 37.676 118.554 38.307 118.132 38.6635L116.841 37.1362ZM123.66 35.106C123.151 35.3183 122.565 35.0771 122.353 34.5672C122.141 34.0574 122.382 33.472 122.892 33.2597L123.66 35.106ZM129.189 32.3953C129.733 32.4868 130.101 33.0026 130.009 33.5472C129.918 34.0919 129.402 34.4592 128.857 34.3676L129.189 32.3953ZM134.292 37.3949C133.894 37.0123 133.881 36.3793 134.264 35.981C134.646 35.5827 135.279 35.57 135.678 35.9526L134.292 37.3949ZM139.57 40.6683C139.884 41.1221 139.772 41.7451 139.318 42.0599C138.864 42.3746 138.241 42.2619 137.926 41.8081L139.57 40.6683ZM141.62 47.5996C141.33 47.13 141.474 46.5137 141.944 46.2229C142.413 45.932 143.03 46.0769 143.321 46.5464L141.62 47.5996ZM146.547 51.3856C146.883 51.8246 146.799 52.4521 146.36 52.7873C145.921 53.1225 145.293 53.0383 144.958 52.5994L146.547 51.3856ZM150.846 57.1913C150.308 57.068 149.971 56.5316 150.095 55.9932C150.218 55.4549 150.755 55.1185 151.293 55.2419L150.846 57.1913ZM155.856 53.7618C156.289 53.4183 156.918 53.4905 157.261 53.923C157.605 54.3555 157.532 54.9845 157.1 55.328L155.856 53.7618ZM161.866 50.0108C161.546 50.4609 160.922 50.5664 160.472 50.2465C160.022 49.9265 159.916 49.3022 160.236 48.852L161.866 50.0108ZM163.356 43.9501C163.633 43.4724 164.245 43.3099 164.723 43.5872C165.2 43.8644 165.363 44.4764 165.085 44.9541L163.356 43.9501ZM168.393 38.8117C168.144 39.3048 167.542 39.5029 167.049 39.2541C166.556 39.0053 166.358 38.4039 166.607 37.9109L168.393 38.8117ZM169.157 32.6397C169.39 32.1391 169.984 31.9221 170.485 32.1552C170.986 32.3883 171.203 32.9831 170.97 33.4838L169.157 32.6397ZM173.813 27.1502C173.593 27.6568 173.004 27.8892 172.497 27.6692C171.991 27.4492 171.758 26.8602 171.978 26.3536L173.813 27.1502ZM174.34 20.7821C174.551 20.2719 175.136 20.0296 175.646 20.241C176.156 20.4524 176.399 21.0374 176.187 21.5476L174.34 20.7821ZM178.729 15.2791C178.525 15.7924 177.944 16.0431 177.43 15.8392C176.917 15.6353 176.666 15.0539 176.87 14.5406L178.729 15.2791ZM179.043 8.98453C179.242 8.46918 179.821 8.21238 180.336 8.41096C180.851 8.60953 181.108 9.18828 180.909 9.70363L179.043 8.98453ZM183.354 3.26232C183.16 3.7796 182.584 4.04209 182.067 3.8486C181.55 3.65511 181.287 3.07891 181.481 2.56163L183.354 3.26232ZM2.032 153.251C1.76891 152.236 1.54754 151.2 1.36637 150.144L3.33757 149.806C3.50972 150.809 3.71953 151.791 3.968 152.749L2.032 153.251ZM0.736439 142.778C0.72033 140.716 0.826105 138.603 1.04508 136.453L3.03478 136.656C2.82258 138.739 2.72088 140.779 2.73638 142.762L0.736439 142.778ZM2.17331 129.21C2.59059 127.192 3.09401 125.153 3.67746 123.103L5.6011 123.65C5.03023 125.656 4.53868 127.648 4.13187 129.615L2.17331 129.21ZM5.94421 116.145C6.65457 114.205 7.42979 112.262 8.26494 110.326L10.1014 111.118C9.28059 113.021 8.51933 114.929 7.82231 116.833L5.94421 116.145ZM11.3639 103.705C12.3005 101.85 13.2884 100.009 14.3231 98.1872L16.0621 99.1752C15.0433 100.968 14.0708 102.781 13.1492 104.607L11.3639 103.705ZM18.1052 91.943C19.237 90.1866 20.4104 88.4579 21.6209 86.7637L23.2482 87.9265C22.0563 89.5945 20.901 91.2967 19.7863 93.0263L18.1052 91.943ZM26.0332 80.9486C27.353 79.3106 28.7066 77.7167 30.0895 76.1743L31.5786 77.5094C30.2198 79.025 28.8889 80.592 27.5906 82.2034L26.0332 80.9486ZM35.153 70.8891C36.6707 69.4101 38.2153 67.9969 39.7813 66.6582L41.0809 68.1785C39.5495 69.4876 38.037 70.8713 36.5488 72.3215L35.153 70.8891ZM45.5593 62.1356C47.3068 60.8925 49.0733 59.7488 50.8519 58.7158L51.8564 60.4452C50.1346 61.4452 48.4197 62.5553 46.7185 63.7653L45.5593 62.1356ZM57.4535 55.4292C59.4559 54.6012 61.4652 53.927 63.4718 53.4233L63.9587 55.3631C62.0548 55.841 60.1382 56.4833 58.2178 57.2774L57.4535 55.4292ZM70.846 52.3702C72.9991 52.3067 75.134 52.4684 77.2369 52.8764L76.856 54.8398C74.9054 54.4613 72.9185 54.3099 70.9049 54.3693L70.846 52.3702ZM84.3249 55.2843C85.2735 55.7565 86.2099 56.2882 87.1328 56.8811L86.0518 58.5638C85.1891 58.0096 84.316 57.514 83.4337 57.0748L84.3249 55.2843ZM87.1328 56.8811C88.0098 57.4445 88.8623 58.0201 89.6908 58.6073L88.5342 60.239C87.7307 59.6695 86.9034 59.1109 86.0518 58.5638L87.1328 56.8811ZM95.2629 63.0386C96.8274 64.4347 98.2817 65.8771 99.6306 67.3576L98.1521 68.7046C96.8498 67.2751 95.4445 65.8812 93.9312 64.5308L95.2629 63.0386ZM104.1 72.9254C105.302 74.6334 106.385 76.3749 107.354 78.1393L105.601 79.1023C104.667 77.4019 103.624 75.7232 102.465 74.0764L104.1 72.9254ZM110.384 84.6169C111.141 86.5542 111.777 88.5029 112.299 90.4499L110.368 90.9683C109.864 89.091 109.251 87.2124 108.521 85.3451L110.384 84.6169ZM113.71 97.4665C113.989 99.5286 114.15 101.571 114.202 103.578L112.203 103.63C112.153 101.694 111.998 99.7242 111.728 97.7352L113.71 97.4665ZM113.924 110.732C113.704 112.824 113.367 114.85 112.925 116.788L110.975 116.344C111.399 114.484 111.723 112.537 111.935 110.524L113.924 110.732ZM110.779 123.662C109.96 125.673 109.013 127.528 107.958 129.187L106.27 128.114C107.255 126.566 108.148 124.82 108.926 122.908L110.779 123.662ZM103.166 134.725C101.397 136.163 99.4599 137.165 97.4099 137.599L96.9955 135.642C98.6811 135.285 100.335 134.449 101.905 133.173L103.166 134.725ZM89.9367 136.593C89.0155 136.144 88.1013 135.571 87.198 134.873L88.4213 133.291C89.2263 133.913 90.0253 134.411 90.8136 134.796L89.9367 136.593ZM87.1619 134.844C86.3368 134.142 85.5442 133.417 84.7892 132.663L86.202 131.247C86.9161 131.96 87.6692 132.65 88.4574 133.32L87.1619 134.844ZM80.0975 126.742C78.9979 124.914 78.1036 122.94 77.4542 120.792L79.3687 120.213C79.9683 122.196 80.7938 124.019 81.8114 125.711L80.0975 126.742ZM76.2614 113.312C76.1957 111.297 76.3094 109.161 76.6185 106.89L78.6003 107.159C78.3049 109.33 78.1986 111.354 78.2604 113.247L76.2614 113.312ZM78.1649 99.5959C78.7067 97.669 79.3687 95.6565 80.158 93.5523L82.0306 94.2547C81.2593 96.3109 80.6154 98.2695 80.0903 100.137L78.1649 99.5959ZM83.0222 86.7257C83.8652 84.8969 84.7936 83.0053 85.8113 81.0479L87.5858 81.9705C86.5817 83.9018 85.6673 85.7649 84.8386 87.5629L83.0222 86.7257ZM89.3672 74.5725C90.3775 72.8209 91.4527 71.0209 92.595 69.1708L94.2968 70.2215C93.1643 72.0556 92.0994 73.8384 91.0997 75.5717L89.3672 74.5725ZM96.5693 62.9449C97.6877 61.2459 98.8584 59.5075 100.083 57.7288L101.73 58.8628C100.513 60.6307 99.3503 62.3576 98.2398 64.0445L96.5693 62.9449ZM104.305 51.7324C104.916 50.8818 105.539 50.0225 106.174 49.1545L107.789 50.335C107.157 51.1989 106.537 52.0539 105.928 52.9001L104.305 51.7324ZM106.174 49.1545C106.812 48.2822 107.438 47.4495 108.053 46.655L109.635 47.8792C109.032 48.6585 108.416 49.4766 107.789 50.335L106.174 49.1545ZM112.537 41.3093C114.04 39.6765 115.473 38.2928 116.841 37.1362L118.132 38.6635C116.838 39.7576 115.465 41.0816 114.008 42.6641L112.537 41.3093ZM122.892 33.2597C125.159 32.3156 127.25 32.0694 129.189 32.3953L128.857 34.3676C127.337 34.112 125.627 34.2873 123.66 35.106L122.892 33.2597ZM135.678 35.9526C137.096 37.3152 138.379 38.9515 139.57 40.6683L137.926 41.8081C136.773 40.1458 135.577 38.6287 134.292 37.3949L135.678 35.9526ZM143.321 46.5464C144.42 48.3206 145.475 49.9812 146.547 51.3856L144.958 52.5994C143.82 51.1086 142.718 49.3719 141.62 47.5996L143.321 46.5464ZM151.293 55.2419C152.531 55.5256 153.999 55.2365 155.856 53.7618L157.1 55.328C154.923 57.0568 152.847 57.6498 150.846 57.1913L151.293 55.2419ZM160.236 48.852C161.215 47.4743 162.253 45.8496 163.356 43.9501L165.085 44.9541C163.959 46.8951 162.888 48.5732 161.866 50.0108L160.236 48.852ZM166.607 37.9109C167.426 36.288 168.275 34.5335 169.157 32.6397L170.97 33.4838C170.08 35.3945 169.222 37.168 168.393 38.8117L166.607 37.9109ZM171.978 26.3536C172.743 24.5927 173.53 22.7369 174.34 20.7821L176.187 21.5476C175.373 23.512 174.582 25.3782 173.813 27.1502L171.978 26.3536ZM176.87 14.5406C177.578 12.7593 178.302 10.908 179.043 8.98453L180.909 9.70363C180.166 11.6332 179.439 13.491 178.729 15.2791L176.87 14.5406Z" fill="url(#paint0_linear_7_4)"/>
<defs>
<linearGradient id="paint0_linear_7_4" x1="188.5" y1="-28" x2="7.00001" y2="252" gradientUnits="userSpaceOnUse">
<stop stop-color="#070707"/>
<stop offset="1" stop-color="white" stop-opacity="0"/>
</linearGradient>
</defs>
</svg>
